<svg xmlns="http://www.w3.org/2000/svg" width="36" height="36" viewBox="0 0 36 36">
    <g fill="none" fill-rule="evenodd">
        <circle cx="18" cy="18" r="18" fill="#78C02A" fill-rule="nonzero"/>
        <path fill="#FFF" d="M15.545 25.467h4.88l.001.016c0 1.373-1.093 2.487-2.44 2.487-1.349 0-2.441-1.114-2.441-2.487v-.016zm10.233-3.108c.232.346.256.795.064 1.165s-.57.602-.981.602H11.11c-.411 0-.789-.232-.981-.602a1.148 1.148 0 0 1 .063-1.165l2.197-3.287v-4.1c0-2.766 1.934-5.072 4.499-5.591V8.118c0-.618.491-1.118 1.097-1.118s1.098.5 1.098 1.118V9.38c2.565.52 4.499 2.824 4.499 5.59v4.101l2.196 3.287z"/>
    </g>
</svg>